<svg width="161" height="161" viewBox="0 0 161 161" fill="none" xmlns="http://www.w3.org/2000/svg">
<g clip-path="url(#clip0_1032_365)">
<path d="M143.29 161H17.71C8.05 161 0 152.95 0 143.29V17.71C0 8.05 8.05 0 17.71 0H143.06C152.95 0 161 8.05 161 17.71V143.06C161 152.95 152.95 161 143.29 161Z" fill="#7C453B"/>
<path d="M133.86 33.5799C133.4 32.1999 132.71 31.0499 131.56 30.5899C130.41 29.8999 129.03 29.4399 127.42 29.4399C123.05 29.4399 117.07 32.4299 109.25 38.1799C101.2 44.1599 91.54 52.8999 80.27 64.1699C72.22 72.4499 63.94 81.1899 55.89 90.1599C47.61 92.2299 40.48 94.5299 34.04 97.0599C32.89 97.5199 32.2 98.2099 31.74 99.3599C31.28 100.28 31.28 101.43 31.74 102.58V102.81V103.04C32.66 104.65 34.04 105.57 35.65 105.57C36.11 105.57 36.57 105.57 37.26 105.34C40.02 104.19 42.78 103.27 45.77 102.35C38.41 111.09 32.43 118.68 27.83 125.35C27.14 126.27 26.91 127.42 27.14 128.57C27.37 129.72 28.06 130.64 28.98 131.33C29.67 131.79 30.59 132.02 31.28 132.02C31.51 132.02 31.74 132.02 31.97 132.02C33.12 131.79 34.04 131.1 34.73 130.18C40.94 121.44 49.45 110.63 60.26 98.2099C68.77 96.1399 77.51 94.5299 86.02 93.1499C87.86 92.9199 89.7 92.6899 91.31 92.4599C88.78 96.5999 86.48 100.74 84.41 104.42C81.42 109.94 79.35 114.31 78.2 117.53C76.82 120.98 76.36 123.51 76.36 125.35C76.36 127.42 76.82 129.03 77.74 130.18C78.89 131.56 80.27 132.02 81.19 132.02C82.11 132.02 82.8 131.79 83.49 131.33C84.41 130.64 85.1 129.72 85.33 128.57C85.56 127.65 85.33 126.5 84.87 125.58C84.87 125.58 84.87 125.12 84.87 124.66C84.87 124.2 85.1 123.28 85.79 121.67C86.25 120.29 86.94 118.68 88.09 116.38C89.01 114.31 90.39 111.55 92 108.56C94.99 103.27 98.21 97.5199 102.12 91.5399C103.73 91.5399 105.11 91.5399 106.26 91.5399C109.02 91.5399 111.32 91.7699 112.93 91.9999C114.08 92.2299 114.77 92.4599 115.23 92.4599C114.77 93.3799 114.54 94.2999 114.54 95.4499C114.77 96.5999 115.23 97.5199 116.38 98.2099C117.07 98.6699 117.99 98.8999 118.91 98.8999C119.14 98.8999 119.37 98.8999 119.6 98.8999C120.75 98.6699 121.67 98.2099 122.36 97.2899C123.97 94.9899 124.66 93.1499 124.43 91.3099C124.2 89.6999 123.74 88.3199 123.05 87.6299C120.75 84.6399 115.92 83.2599 108.1 83.0299C107.87 83.0299 107.87 83.0299 107.64 83.0299C109.48 80.0399 111.32 77.2799 113.16 74.2899C118.91 65.3199 123.97 57.2699 127.88 50.3699C130.64 45.5399 132.48 42.0899 133.17 39.7899C134.09 36.7999 134.32 34.9599 133.86 33.5799ZM70.15 86.9399C75.44 81.1899 80.96 75.4399 86.25 70.1499C97.06 59.1099 106.49 50.8299 114.08 45.0799C118.68 41.6299 122.13 39.5599 124.2 38.8699C123.28 40.4799 122.13 43.0099 120.29 46.2299C116.38 52.8999 111.55 60.7199 105.8 69.4599C102.81 74.0599 100.05 78.4299 97.29 83.0299C93.38 83.2599 89.47 83.7199 85.1 84.4099C80.04 85.0999 74.98 86.0199 70.15 86.9399Z" fill="white"/>
</g>
<defs>
<clipPath id="clip0_1032_365">
<rect width="161" height="161" fill="white"/>
</clipPath>
</defs>
</svg>
