<svg width="945" height="384" viewBox="0 0 945 384" fill="none" xmlns="http://www.w3.org/2000/svg">
<path d="M309.362 210.914C319.191 212.785 324.807 214.656 326.211 216.995C327.147 217.931 326.679 219.334 326.211 221.205C325.275 222.609 324.807 224.012 323.871 225.416C322.467 227.287 321.999 228.69 322.467 231.029C322.935 232.9 323.871 234.304 325.275 235.707C327.147 236.643 328.551 237.111 330.891 237.111C332.763 236.643 334.168 235.707 335.572 234.304C340.252 227.755 342.124 222.609 341.656 218.399C341.188 214.188 340.252 210.914 338.38 209.043C331.827 200.622 315.915 195.944 289.237 195.476C284.089 195.476 278.473 195.476 272.389 195.476C281.749 180.507 291.11 165.537 300.938 150.567C322.467 117.354 340.72 87.8821 355.229 63.0887C365.057 45.78 371.609 33.6172 374.417 25.6646C377.226 17.712 378.162 12.5662 376.758 9.29159C375.822 6.48479 374.417 4.14578 372.077 2.74238C358.973 -5.21023 334.168 4.14578 298.598 30.8104C269.581 51.3937 234.479 83.2041 193.293 124.371C162.404 155.245 131.982 187.991 102.029 222.141C71.1393 230.094 43.9941 238.514 20.1249 247.87C18.2529 248.806 16.8488 249.741 16.3808 251.612C15.4447 253.484 15.4447 255.355 16.3808 257.226C17.7848 260.033 20.1249 261.904 22.9331 261.904C23.8691 261.904 24.8052 261.904 25.2732 261.436C43.058 254.419 62.7149 247.87 85.18 241.789C49.6103 282.019 21.529 317.572 1.40407 346.576C0 348.447 0 350.318 0 352.19C0.468022 354.061 1.40407 355.464 3.27615 356.868C5.14824 358.271 6.55231 358.271 8.89241 357.803C10.7645 357.335 12.1686 356.4 13.5726 354.529C36.5057 321.315 68.7992 281.084 109.985 234.304C142.279 226.351 175.04 219.802 208.27 215.124C222.31 213.253 234.479 211.849 245.711 210.446C233.075 231.029 221.374 250.677 211.078 268.921C200.313 289.036 192.825 304.474 188.613 315.701C184.401 326.928 182.061 335.816 182.061 341.43C182.061 347.044 182.997 351.254 185.337 354.061C187.209 356.4 189.081 357.335 191.421 357.335C192.825 357.335 194.229 356.868 195.633 355.932C197.505 354.996 198.441 353.125 198.909 351.254C199.377 349.383 198.909 347.512 197.973 345.64C197.505 345.173 197.505 344.705 197.037 343.301C197.037 341.898 197.037 340.027 197.505 336.752C197.973 333.945 199.377 329.735 200.781 324.589C202.653 319.443 205.462 312.894 209.206 304.474C212.95 296.521 218.098 286.697 224.182 275.47C235.883 254.887 248.988 232.433 263.964 208.575C284.089 208.575 299.534 209.042 309.362 210.914ZM206.398 201.09C179.72 204.832 153.043 209.978 126.366 216.06C152.107 187.524 177.848 160.391 203.589 134.662C244.307 93.9635 278.941 62.6209 307.49 41.5698C325.275 28.9392 338.38 20.5188 346.804 17.2442C355.229 13.9696 360.845 12.5662 363.185 13.9696C363.185 15.8408 361.313 19.5832 358.505 26.1324C355.697 32.6816 350.08 42.9732 342.124 56.5395C327.615 80.8651 309.83 109.869 288.769 142.147C277.537 159.923 265.836 177.7 255.072 195.476C240.095 196.88 223.714 198.751 206.398 201.09Z" fill="#7C453B"/>
<path d="M944 212.785C943.532 210.913 942.596 209.51 940.724 208.107C938.852 207.171 937.448 206.703 935.108 207.171C932.768 207.639 931.832 208.574 930.427 210.446C920.131 224.48 907.962 234.771 893.922 240.385C879.413 246.466 866.776 247.87 855.076 245.531C844.779 243.192 837.759 238.046 834.483 230.093C831.675 224.48 830.739 214.656 832.611 200.154C834.015 185.652 841.035 165.537 852.736 138.872C862.564 117.353 873.329 96.77 884.561 77.1223C896.73 57.4747 905.622 42.5051 911.239 31.7457C912.175 29.8745 912.643 28.0033 912.175 26.1321C911.707 24.2609 910.771 22.8575 908.898 21.9219C907.026 20.9863 905.154 20.5185 903.282 20.9863C901.41 21.4541 900.006 22.3897 898.602 24.2609C897.198 27.0677 895.326 29.8745 893.454 33.1491C887.369 42.9729 880.349 55.1357 871.925 69.6375C852.268 102.384 827.463 137.469 797.977 175.36C791.425 183.313 785.341 190.33 779.724 196.879C760.536 190.33 744.623 189.395 731.986 193.605C719.818 197.347 710.925 202.493 704.841 208.107C703.437 208.574 702.501 209.042 701.565 210.446C698.289 214.656 692.672 218.866 685.184 223.076C677.696 227.286 669.271 231.029 659.443 233.836C639.318 239.449 625.277 239.917 616.853 234.771C612.173 231.029 611.705 224.947 614.513 216.995C617.321 209.042 621.065 201.557 625.277 195.476C626.213 194.073 626.681 192.201 626.213 190.33C625.745 188.459 625.277 187.055 623.873 186.12C622.469 184.717 620.597 184.249 618.725 184.249C616.853 184.249 615.449 185.184 614.045 186.588C606.088 195.008 598.132 201.557 590.176 207.171C586.899 202.493 583.155 198.751 579.411 196.879C575.667 194.54 571.923 193.605 569.115 193.137C558.35 191.266 547.586 193.605 536.821 199.218C531.673 202.025 526.993 205.3 522.78 209.042C486.743 211.381 445.557 221.673 398.755 238.981C389.862 232.9 382.842 225.415 378.162 215.591C380.502 213.252 382.842 210.446 386.118 206.703C389.394 202.961 392.67 198.751 395.947 194.54C406.711 180.974 410.455 171.618 407.179 166.004C406.711 165.069 405.775 163.665 403.903 162.262C402.499 160.859 399.691 159.923 395.947 159.923C384.714 160.391 376.29 164.133 370.673 171.15C364.589 178.167 361.313 186.588 360.377 195.476C359.441 206.703 361.313 216.059 365.525 224.48C369.737 232.432 375.354 239.449 382.374 244.595C372.077 248.805 361.781 253.483 351.016 258.161C321.999 272.195 297.662 286.229 278.941 300.731C257.88 317.104 245.712 331.606 242.435 345.172C241.499 349.382 241.499 354.528 243.371 360.61C245.244 366.691 250.86 372.305 260.22 377.45C269.113 382.128 279.877 384 292.982 384C312.171 384 333.7 379.322 358.037 370.433C398.755 354.06 426.836 333.945 441.345 310.555C447.429 300.263 449.301 289.972 446.961 280.616C444.621 270.324 437.132 261.436 425.432 253.951C423.092 252.548 420.284 251.144 416.54 249.273C415.603 248.805 414.667 248.337 413.731 247.402C449.301 234.771 481.127 226.819 509.208 223.544C504.528 232.432 504.528 240.853 509.208 247.87C512.952 252.548 517.164 254.887 522.78 254.419C526.525 254.419 529.801 253.951 533.077 252.548C536.353 251.612 538.693 250.209 540.565 249.741C555.542 243.192 569.583 236.175 582.687 228.222V228.69C583.155 230.561 584.091 231.964 585.963 233.368C587.367 234.303 589.24 234.771 591.58 234.303C593.452 233.836 594.856 232.9 596.26 231.029C597.196 229.625 597.664 227.754 597.196 225.415C596.728 223.076 596.26 221.205 595.792 219.334C596.728 218.398 597.664 217.93 598.6 216.995C597.196 224.48 597.664 230.561 599.536 235.239C601.408 239.917 604.216 243.192 607.96 245.531C616.853 251.144 628.085 253.015 642.126 251.144C656.167 249.273 669.739 245.531 682.844 238.981C682.844 238.981 683.312 238.981 683.312 238.514C680.972 245.998 680.972 252.548 682.844 258.629C685.184 264.243 689.396 267.517 695.481 267.985C695.949 267.985 696.417 267.985 696.885 267.985C719.818 267.985 748.835 249.741 783.001 212.785C783.937 213.252 784.405 213.252 785.341 213.72C787.213 214.656 789.085 214.656 790.957 214.188C792.829 213.72 794.233 212.317 795.169 210.446C796.105 209.042 796.105 207.171 795.637 205.768C795.169 204.364 794.701 202.961 793.297 201.557C798.445 195.944 803.594 189.395 809.21 182.845C815.762 174.425 822.315 166.004 828.867 158.052C816.698 191.734 814.358 217.463 821.846 234.303C826.995 246.934 837.291 254.887 852.736 258.161C867.713 261.436 883.625 259.097 900.474 252.08C918.259 244.127 932.3 232.432 943.064 216.995C944 216.527 944.468 214.656 944 212.785ZM375.822 195.944C375.822 195.008 376.29 192.669 377.226 189.395C378.162 186.12 379.566 182.845 382.374 180.038C384.714 176.764 388.458 174.893 393.138 173.489C389.862 178.635 384.246 186.12 375.822 195.944ZM418.88 266.114C435.26 276.405 439.005 288.568 430.112 303.538C417.008 324.121 391.266 341.898 353.825 356.867C315.447 370.901 286.897 373.24 267.241 364.82C262.092 362.013 258.816 358.738 257.88 355.932C256.944 353.125 256.476 350.786 257.412 348.447C259.752 338.155 270.049 325.992 288.302 312.426C306.086 298.86 329.487 284.826 358.505 271.26C371.141 265.178 384.246 259.565 397.351 254.419C402.499 257.693 407.179 260.032 411.391 262.371C414.667 263.307 417.008 264.71 418.88 266.114ZM535.417 236.175C533.077 237.11 531.673 238.046 529.801 238.514C528.397 238.981 526.993 239.449 526.057 239.449C525.121 239.449 524.185 239.917 523.717 239.917C523.249 239.917 522.78 239.917 521.844 239.917C520.908 238.046 520.44 235.707 521.376 233.368C522.312 231.029 523.249 229.158 524.185 227.754C527.929 222.141 533.545 216.995 540.565 212.317C547.586 208.107 554.606 205.768 561.626 205.768C563.03 205.768 564.434 205.768 565.839 206.235C570.987 207.171 574.731 209.978 578.007 214.656C565.37 222.141 550.862 229.625 535.417 236.175ZM737.603 236.642C728.71 243.192 720.754 247.87 714.201 250.676C707.649 253.483 702.033 254.419 697.353 254.419H696.885C695.949 252.548 696.417 248.805 697.821 243.192C699.225 237.578 702.969 231.497 708.117 224.48C712.797 218.398 719.818 213.252 729.646 209.042C739.475 204.364 752.579 204.364 768.492 208.574C757.259 220.269 746.495 230.093 737.603 236.642Z" fill="#7C453B"/>
<path d="M549.458 293.714C552.266 296.053 554.138 299.328 554.138 303.538C554.138 307.28 553.202 310.087 551.33 312.894C549.458 315.701 547.118 317.572 543.841 318.975C540.565 320.379 536.821 321.314 532.141 321.314H522.312L519.972 333.009H509.676L518.568 289.972H536.353C541.969 290.439 546.181 291.375 549.458 293.714ZM540.565 311.023C542.437 309.619 543.373 307.28 543.373 304.474C543.373 302.602 542.437 300.731 541.033 299.796C539.629 298.86 537.757 298.392 534.949 298.392H526.993L523.716 313.362H532.609C536.353 313.362 538.693 312.426 540.565 311.023Z" fill="#7C453B"/>
<path d="M621.533 290.439L612.64 333.477H602.344L606.088 316.169H585.963L582.219 333.477H571.923L580.815 290.439H591.112L587.835 307.28H607.96L611.236 290.439H621.533Z" fill="#7C453B"/>
<path d="M651.018 331.606C647.742 330.203 645.402 327.864 643.53 325.057C641.658 322.25 640.722 318.975 640.722 315.233C640.722 310.555 641.658 305.877 643.998 302.135C646.338 298.392 649.614 295.118 653.827 292.779C658.039 290.44 662.719 289.504 668.335 289.504C673.015 289.504 676.76 290.44 680.036 291.843C683.312 293.246 685.652 295.585 687.524 298.392C689.396 301.199 690.332 304.474 690.332 308.216C690.332 312.894 689.396 317.572 687.056 321.314C684.716 325.057 681.44 328.331 677.228 330.67C673.015 333.009 668.335 333.945 662.719 333.945C658.039 333.945 654.295 333.477 651.018 331.606ZM672.079 323.186C674.42 321.782 676.292 319.443 677.696 317.104C679.1 314.765 679.568 311.958 679.568 308.684C679.568 305.409 678.632 302.602 676.292 300.731C673.951 298.86 671.143 297.924 667.399 297.924C664.123 297.924 661.315 298.86 658.975 300.263C656.635 301.667 654.763 304.006 653.359 306.345C651.955 308.684 651.486 311.491 651.486 314.765C651.486 318.04 652.422 320.847 654.763 322.718C657.103 324.589 659.911 325.525 663.655 325.525C666.463 325.525 669.271 324.589 672.079 323.186Z" fill="#7C453B"/>
<path d="M724.498 298.392H710.457L712.329 290.439H751.175L748.835 298.392H734.794L727.774 333.477H717.477L724.498 298.392Z" fill="#7C453B"/>
<path d="M775.044 331.606C771.768 330.203 769.428 327.864 767.556 325.057C765.684 322.25 764.748 318.975 764.748 315.233C764.748 310.555 765.684 305.877 768.024 302.135C770.364 298.392 773.64 295.118 777.852 292.779C782.064 290.44 786.745 289.504 792.361 289.504C797.041 289.504 800.785 290.44 804.061 291.843C807.338 293.246 809.678 295.585 811.55 298.392C813.422 301.199 814.358 304.474 814.358 308.216C814.358 312.894 813.422 317.572 811.082 321.314C808.742 325.057 805.465 328.331 801.253 330.67C797.041 333.009 792.361 333.945 786.745 333.945C782.064 333.945 778.32 333.477 775.044 331.606ZM796.105 323.186C798.445 321.782 800.317 319.443 801.721 317.104C803.125 314.765 803.593 311.958 803.593 308.684C803.593 305.409 802.657 302.602 800.317 300.731C797.977 298.86 795.169 297.924 791.425 297.924C788.149 297.924 785.341 298.86 783 300.263C780.66 301.667 778.788 304.006 777.384 306.345C775.98 308.684 775.512 311.491 775.512 314.765C775.512 318.04 776.448 320.847 778.788 322.718C781.128 324.589 783.936 325.525 787.681 325.525C790.957 325.525 793.765 324.589 796.105 323.186Z" fill="#7C453B"/>
</svg>
